# xmcd CD database file
#
# Track frame offsets:
#	300
#	14418
#	40044
#	57980
#	82213
#	96387
#	124188
#	150400
#	163293
#	182009
#	201924
#	220334
#	247966
#	268800
#	286681
#	305287
#
# Disc length: 4397 seconds
#
# Revision: 0
# Processed by: cddbd v1.5.1PL0 Copyright (c) Steve Scherf et al.
# Submitted via: CDex 1.50
#
DISCID=e5112910
DTITLE=Bëlga - Jön a gólem
DYEAR=2004
DGENRE=
TTITLE0=Gólem
TTITLE1=Az a baj
TTITLE2=Lottó
TTITLE3=Gyere kislány, gyere
TTITLE4=Belga
TTITLE5=Királyok a házban
TTITLE6=Mocskos
TTITLE7=Hazakísérlek
TTITLE8=Képviselõ boogie
TTITLE9=100
TTITLE10=Az átalakulás vége
TTITLE11=Huszonkét férfi
TTITLE12=Probléma
TTITLE13=Mr. Márka
TTITLE14=Új világ
TTITLE15=Producer dala
EXTD=YEAR: 2004
EXTT0=
EXTT1=
EXTT2=
EXTT3=
EXTT4=
EXTT5=
EXTT6=
EXTT7=
EXTT8=
EXTT9=
EXTT10=
EXTT11=
EXTT12=
EXTT13=
EXTT14=
EXTT15=
PLAYORDER=
